<svg version="1.0" xmlns="http://www.w3.org/2000/svg"
 width="800.000000pt" height="800.000000pt" viewBox="0 0 800.000000 800.000000"
 preserveAspectRatio="xMidYMid meet">

<g transform="translate(0.000000,800.000000) scale(0.100000,-0.100000)"
fill="#000000" stroke="none">
<path d="M4589 7100 c-104 -13 -253 -50 -324 -80 -11 -5 -42 -16 -70 -26 -116
-42 -269 -132 -410 -242 -38 -30 -626 -610 -1305 -1288 l-1235 -1234 570 0
570 0 945 946 c650 650 965 959 1010 988 76 51 178 97 270 122 99 28 310 26
413 -4 108 -31 258 -104 301 -148 9 -8 16 -13 16 -10 0 4 25 -22 118 -122 61
-67 145 -237 168 -343 21 -99 21 -273 -1 -369 -21 -94 -88 -237 -147 -315 -52
-67 -392 -410 -407 -410 -6 0 -209 198 -451 440 l-440 440 -1460 -1460 c-803
-803 -1460 -1463 -1460 -1467 0 -4 253 -7 561 -8 l562 0 583 582 c320 320 581
585 578 590 -3 4 -1 8 5 8 16 0 321 302 315 311 -3 5 0 9 7 9 6 0 76 64 155
142 79 79 148 144 152 146 9 3 326 -307 320 -313 -1 -2 -617 -620 -1368 -1374
-751 -754 -1366 -1376 -1368 -1381 -3 -7 570 -10 1640 -10 1759 0 1726 -1
1951 50 524 117 921 460 1066 920 51 160 71 364 52 510 -14 101 -56 282 -73
313 -7 12 -13 28 -14 36 -5 30 -98 210 -149 286 -76 117 -190 246 -399 455
-102 102 -186 190 -186 195 0 6 77 87 171 180 94 94 193 195 220 226 131 145
261 367 315 539 15 47 31 94 36 105 34 83 62 344 54 505 -21 440 -188 808
-506 1118 -123 121 -234 199 -405 284 -162 82 -337 136 -508 158 -83 11 -355
11 -438 0z m702 -3905 c244 -245 313 -336 354 -465 99 -316 -80 -577 -465
-677 l-105 -27 -687 -4 c-518 -2 -688 0 -688 9 0 11 1359 1378 1371 1379 4 0
103 -97 220 -215z"/>
</g>
</svg>
